<svg width="2573" height="2248" viewBox="0 0 2573 2248" fill="none" xmlns="http://www.w3.org/2000/svg">
<path d="M1115.69 113.046L32.7561 1845.92C-53.5789 1984.07 40.8501 2167.72 198.083 2167.52C1755.69 2165.55 1175.32 2167.59 2363.85 2167.95C2521 2168 2615.27 1984.43 2528.98 1846.35L1445.78 113.046C1367.78 -11.7719 1193.69 -11.7719 1115.69 113.046Z" fill="url(#paint0_linear_524_965)"/>
<path d="M1172.98 1732.68C1172.98 1666.54 1218.91 1618.77 1281.37 1618.77C1347.52 1618.77 1389.77 1666.54 1389.77 1732.68C1389.77 1796.98 1347.51 1846.59 1281.37 1846.59C1217.07 1846.59 1172.98 1796.98 1172.98 1732.68ZM1218.21 1446.1L1193.92 613.354C1193.52 599.512 1204.63 588.072 1218.48 588.072H1344.27C1358.12 588.072 1369.23 599.512 1368.82 613.354L1344.54 1446.1C1344.15 1459.39 1333.27 1469.95 1319.98 1469.95H1242.77C1229.48 1469.95 1218.6 1459.39 1218.21 1446.1Z" fill="white" stroke="white" stroke-width="16" stroke-miterlimit="10"/>
<path d="M970.139 115.613L34.4025 1932.2C-40.1975 2077.02 69.1135 2252.23 225.79 2239.01C1777.88 2108.08 1199.68 2158.17 2384.16 2060.12C2540.77 2047.16 2619.51 1856.41 2522.09 1725.95L1299.1 88.2821C1211.03 -29.6489 1037.54 -15.2348 970.139 115.613Z" stroke="black" stroke-width="16" stroke-miterlimit="10"/>
<path d="M1161.33 1724.94C1155.86 1659.03 1197.68 1607.62 1259.93 1602.45C1325.84 1596.97 1371.91 1641.08 1377.39 1706.99C1382.71 1771.08 1344.7 1824.01 1278.79 1829.49C1214.71 1834.81 1166.66 1789.03 1161.33 1724.94ZM1182.69 1435.61L1089.53 607.726C1087.98 593.965 1098.11 581.644 1111.91 580.497L1237.27 570.082C1251.07 568.935 1263.09 579.416 1263.83 593.244L1308.58 1425.15C1309.29 1438.41 1299.32 1449.85 1286.08 1450.95L1209.13 1457.34C1195.89 1458.44 1184.17 1448.81 1182.69 1435.61Z" stroke="black" stroke-width="16" stroke-miterlimit="10"/>
<defs>
<linearGradient id="paint0_linear_524_965" x1="1280.87" y1="2167.95" x2="1280.87" y2="19.4324" gradientUnits="userSpaceOnUse">
<stop stop-color="#A5A5AD"/>
<stop offset="0.0491" stop-color="#A8A7AF"/>
<stop offset="0.3055" stop-color="#A9ABB2"/>
<stop offset="0.5975" stop-color="#ACB1B8"/>
<stop offset="1" stop-color="#ADBAC0"/>
</linearGradient>
</defs>
</svg>
