<svg width="276" height="277" viewBox="0 0 276 277" fill="none" xmlns="http://www.w3.org/2000/svg">
<path d="M262 151C262 210.094 214.094 258 155 258C95.9055 258 48 210.094 48 151C48 91.9055 95.9055 44 155 44C214.094 44 262 91.9055 262 151Z" fill="#00D57B"/>
<path d="M249.5 141C249.5 199.266 202.266 246.5 144 246.5C85.734 246.5 38.5 199.266 38.5 141C38.5 82.734 85.734 35.5 144 35.5C202.266 35.5 249.5 82.734 249.5 141Z" stroke="black" stroke-width="3"/>
<path d="M113.344 146.398L141.92 180.454" stroke="black" stroke-width="5" stroke-linecap="round"/>
<path d="M185.482 113L142 180" stroke="black" stroke-width="5" stroke-linecap="round"/>
<path d="M267.152 25.6667C267.152 25.6667 267.187 31.271 269.155 33.9431C270.739 36.0929 276 36.9162 276 36.9162C276 36.9162 270.567 37.9494 269.155 40.1304C267.744 42.3113 267.152 48.8889 267.152 48.8889C267.152 48.8889 267.426 42.6112 264.815 40.1304C263.288 38.6791 258.889 36.9162 258.889 36.9162C258.889 36.9162 263.516 36.1083 264.815 33.9431C266.339 31.4013 267.152 25.6667 267.152 25.6667Z" fill="url(#paint0_linear_1011_96)"/>
<path d="M250.673 33C250.673 33 250.706 38.6043 252.533 41.2764C254.004 43.4262 258.889 44.2495 258.889 44.2495C258.889 44.2495 253.844 45.2828 252.533 47.4637C251.223 49.6446 250.673 56.2222 250.673 56.2222C250.673 56.2222 250.927 49.9445 248.503 47.4637C247.085 46.0124 243 44.2495 243 44.2495C243 44.2495 247.297 43.4417 248.503 41.2764C249.918 38.7346 250.673 33 250.673 33Z" fill="url(#paint1_linear_1011_96)"/>
<path d="M257.249 0C257.249 0 257.299 8.55388 260.111 12.6324C262.373 15.9137 269.889 17.1703 269.889 17.1703C269.889 17.1703 262.127 18.7474 260.111 22.0761C258.095 25.4049 257.249 35.4444 257.249 35.4444C257.249 35.4444 257.64 25.8626 253.91 22.0761C251.729 19.8611 245.444 17.1703 245.444 17.1703C245.444 17.1703 252.055 15.9373 253.91 12.6324C256.088 8.75288 257.249 0 257.249 0Z" fill="url(#paint2_linear_1011_96)"/>
<path d="M267.152 25.6667C267.152 25.6667 267.187 31.271 269.155 33.9431C270.739 36.0929 276 36.9162 276 36.9162C276 36.9162 270.567 37.9494 269.155 40.1304C267.744 42.3113 267.152 48.8889 267.152 48.8889C267.152 48.8889 267.426 42.6112 264.815 40.1304C263.288 38.6791 258.889 36.9162 258.889 36.9162C258.889 36.9162 263.516 36.1083 264.815 33.9431C266.339 31.4013 267.152 25.6667 267.152 25.6667Z" fill="url(#paint3_linear_1011_96)"/>
<path d="M250.673 33C250.673 33 250.706 38.6043 252.533 41.2764C254.004 43.4262 258.889 44.2495 258.889 44.2495C258.889 44.2495 253.844 45.2828 252.533 47.4637C251.223 49.6446 250.673 56.2222 250.673 56.2222C250.673 56.2222 250.927 49.9445 248.503 47.4637C247.085 46.0124 243 44.2495 243 44.2495C243 44.2495 247.297 43.4417 248.503 41.2764C249.918 38.7346 250.673 33 250.673 33Z" fill="url(#paint4_linear_1011_96)"/>
<path d="M257.249 0C257.249 0 257.299 8.55388 260.111 12.6324C262.373 15.9137 269.889 17.1703 269.889 17.1703C269.889 17.1703 262.127 18.7474 260.111 22.0761C258.095 25.4049 257.249 35.4444 257.249 35.4444C257.249 35.4444 257.64 25.8626 253.91 22.0761C251.729 19.8611 245.444 17.1703 245.444 17.1703C245.444 17.1703 252.055 15.9373 253.91 12.6324C256.088 8.75288 257.249 0 257.249 0Z" fill="url(#paint5_linear_1011_96)"/>
<path d="M225.152 245.667C225.152 245.667 225.187 251.271 227.155 253.943C228.739 256.093 234 256.916 234 256.916C234 256.916 228.567 257.949 227.155 260.13C225.744 262.311 225.152 268.889 225.152 268.889C225.152 268.889 225.426 262.611 222.815 260.13C221.288 258.679 216.889 256.916 216.889 256.916C216.889 256.916 221.516 256.108 222.815 253.943C224.339 251.401 225.152 245.667 225.152 245.667Z" fill="url(#paint6_linear_1011_96)"/>
<path d="M208.673 253C208.673 253 208.706 258.604 210.533 261.276C212.004 263.426 216.889 264.25 216.889 264.25C216.889 264.25 211.844 265.283 210.533 267.464C209.223 269.645 208.673 276.222 208.673 276.222C208.673 276.222 208.927 269.944 206.503 267.464C205.085 266.012 201 264.25 201 264.25C201 264.25 205.297 263.442 206.503 261.276C207.918 258.735 208.673 253 208.673 253Z" fill="url(#paint7_linear_1011_96)"/>
<path d="M215.249 220C215.249 220 215.299 228.554 218.111 232.632C220.373 235.914 227.889 237.17 227.889 237.17C227.889 237.17 220.127 238.747 218.111 242.076C216.095 245.405 215.249 255.444 215.249 255.444C215.249 255.444 215.64 245.863 211.91 242.076C209.729 239.861 203.444 237.17 203.444 237.17C203.444 237.17 210.055 235.937 211.91 232.632C214.088 228.753 215.249 220 215.249 220Z" fill="url(#paint8_linear_1011_96)"/>
<path d="M24.1522 95.6667C24.1522 95.6667 24.1869 101.271 26.1553 103.943C27.739 106.093 32.9998 106.916 32.9998 106.916C32.9998 106.916 27.5668 107.949 26.1553 110.13C24.7439 112.311 24.1522 118.889 24.1522 118.889C24.1522 118.889 24.4257 112.611 21.815 110.13C20.2877 108.679 15.8887 106.916 15.8887 106.916C15.8887 106.916 20.5164 106.108 21.815 103.943C23.3394 101.401 24.1522 95.6667 24.1522 95.6667Z" fill="url(#paint9_linear_1011_96)"/>
<path d="M7.67325 103C7.67325 103 7.70551 108.604 9.53333 111.276C11.0038 113.426 15.8889 114.25 15.8889 114.25C15.8889 114.25 10.844 115.283 9.53333 117.464C8.22268 119.645 7.67325 126.222 7.67325 126.222C7.67325 126.222 7.92729 119.944 5.50298 117.464C4.08479 116.012 0 114.25 0 114.25C0 114.25 4.29718 113.442 5.50298 111.276C6.91849 108.735 7.67325 103 7.67325 103Z" fill="url(#paint10_linear_1011_96)"/>
<path d="M14.2493 70C14.2493 70 14.299 78.5539 17.111 82.6324C19.3733 85.9137 26.8888 87.1703 26.8888 87.1703C26.8888 87.1703 19.1274 88.7474 17.111 92.0761C15.0946 95.4049 14.2493 105.444 14.2493 105.444C14.2493 105.444 14.6402 95.8626 10.9105 92.0761C8.72863 89.8611 2.44434 87.1703 2.44434 87.1703C2.44434 87.1703 9.05538 85.9373 10.9105 82.6324C13.0882 78.7529 14.2493 70 14.2493 70Z" fill="url(#paint11_linear_1011_96)"/>
<circle cx="57" cy="34" r="4" fill="#00D57B"/>
<circle cx="227.5" cy="15.5" r="6.5" stroke="#00D57B" stroke-width="2"/>
<circle cx="31.5" cy="7.5" r="6.5" stroke="black" stroke-width="2"/>
<line x1="69.5302" y1="29.7967" x2="78.5856" y2="20.7413" stroke="black"/>
<line x1="69.3536" y1="20.6464" x2="78.4089" y2="29.7018" stroke="black"/>
<line x1="202.908" y1="29.5778" x2="215.026" y2="25.4379" stroke="black"/>
<line x1="206.78" y1="21.2855" x2="210.92" y2="33.4041" stroke="black"/>
<path d="M221.402 46.5L224 42L226.598 46.5H221.402Z" stroke="#ADBAC0"/>
<defs>
<linearGradient id="paint0_linear_1011_96" x1="252.407" y1="37.0254" x2="271.364" y2="53.7114" gradientUnits="userSpaceOnUse">
<stop offset="0.155" stop-color="white"/>
<stop offset="1" stop-color="#FDF305"/>
</linearGradient>
<linearGradient id="paint1_linear_1011_96" x1="236.981" y1="44.3587" x2="255.711" y2="59.6667" gradientUnits="userSpaceOnUse">
<stop offset="0.155" stop-color="white"/>
<stop offset="1" stop-color="#FDF305"/>
</linearGradient>
<linearGradient id="paint2_linear_1011_96" x1="236.185" y1="17.337" x2="264.816" y2="40.9242" gradientUnits="userSpaceOnUse">
<stop offset="0.155" stop-color="white"/>
<stop offset="1" stop-color="#FDF305"/>
</linearGradient>
<linearGradient id="paint3_linear_1011_96" x1="252.407" y1="37.0254" x2="271.364" y2="53.7114" gradientUnits="userSpaceOnUse">
<stop stop-color="#E8E8E8"/>
<stop offset="1" stop-color="#ADBAC0"/>
</linearGradient>
<linearGradient id="paint4_linear_1011_96" x1="236.981" y1="44.3587" x2="255.711" y2="59.6667" gradientUnits="userSpaceOnUse">
<stop stop-color="#E8E8E8"/>
<stop offset="1" stop-color="#ADBAC0"/>
</linearGradient>
<linearGradient id="paint5_linear_1011_96" x1="236.185" y1="17.337" x2="264.816" y2="40.9242" gradientUnits="userSpaceOnUse">
<stop stop-color="#E8E8E8"/>
<stop offset="1" stop-color="#ADBAC0"/>
</linearGradient>
<linearGradient id="paint6_linear_1011_96" x1="210.407" y1="257.025" x2="229.364" y2="273.711" gradientUnits="userSpaceOnUse">
<stop stop-color="#E8E8E8"/>
<stop offset="1" stop-color="#ADBAC0"/>
</linearGradient>
<linearGradient id="paint7_linear_1011_96" x1="194.981" y1="264.359" x2="213.711" y2="279.667" gradientUnits="userSpaceOnUse">
<stop stop-color="#E8E8E8"/>
<stop offset="1" stop-color="#ADBAC0"/>
</linearGradient>
<linearGradient id="paint8_linear_1011_96" x1="194.185" y1="237.337" x2="222.816" y2="260.924" gradientUnits="userSpaceOnUse">
<stop stop-color="#E8E8E8"/>
<stop offset="1" stop-color="#ADBAC0"/>
</linearGradient>
<linearGradient id="paint9_linear_1011_96" x1="9.40719" y1="107.025" x2="28.3643" y2="123.711" gradientUnits="userSpaceOnUse">
<stop stop-color="#E8E8E8"/>
<stop offset="1" stop-color="#ADBAC0"/>
</linearGradient>
<linearGradient id="paint10_linear_1011_96" x1="-6.01852" y1="114.359" x2="12.7109" y2="129.667" gradientUnits="userSpaceOnUse">
<stop stop-color="#E8E8E8"/>
<stop offset="1" stop-color="#ADBAC0"/>
</linearGradient>
<linearGradient id="paint11_linear_1011_96" x1="-6.81492" y1="87.337" x2="21.8163" y2="110.924" gradientUnits="userSpaceOnUse">
<stop stop-color="#E8E8E8"/>
<stop offset="1" stop-color="#ADBAC0"/>
</linearGradient>
</defs>
</svg>
